<svg width="1414" height="270" viewBox="0 0 1414 270" fill="none" xmlns="http://www.w3.org/2000/svg">
<path opacity="0.48" d="M702.21 49.4299C451.16 48.7972 247.565 87.6041 247.424 136.113C247.283 184.621 450.668 224.483 701.718 225.116C952.768 225.748 1156.36 186.941 1156.5 138.433C1156.64 89.9944 953.26 50.1329 702.21 49.4299ZM701.296 223.92C453.902 223.288 253.47 181.88 253.54 136.183C253.681 90.4865 454.605 50.3438 701.999 50.9765C949.393 51.6093 1149.54 92.7361 1149.4 138.503C1149.26 184.27 948.69 224.553 701.296 223.92Z" fill="#2281D1"/>
<path opacity="0.48" d="M707.342 24.9647C386.341 25.8083 126.223 76.7775 126.363 138.854C126.504 200.931 386.904 250.495 707.904 249.651C1028.91 248.807 1289.02 197.838 1288.88 135.761C1288.74 73.7545 1028.34 24.121 707.342 24.9647ZM707.623 247.12C391.263 247.964 134.307 197.276 134.167 138.854C134.026 80.4332 390.56 28.6204 706.92 27.7768C1023.28 26.9331 1279.6 77.3399 1279.81 135.831C1280.02 194.323 1023.98 246.276 707.623 247.12Z" fill="#4493E2"/>
<path opacity="0.48" d="M706.92 0.78067C316.742 0.78067 0.381378 61.9437 0.381378 137.378C0.381378 212.813 316.742 269.617 706.92 269.617C1097.1 269.617 1413.46 212.742 1413.46 137.308C1413.46 61.8734 1097.1 0.78067 706.92 0.78067ZM706.147 265.961C321.593 265.961 9.8722 208.384 9.8722 137.308C9.8722 66.2322 321.663 3.87397 706.217 3.87397C1090.77 3.87397 1402.42 66.2322 1402.42 137.308C1402.42 208.384 1090.7 265.961 706.147 265.961Z" fill="#8EBDF4"/>
</svg>
