<svg width="52" height="53" viewBox="0 0 52 53" fill="none" xmlns="http://www.w3.org/2000/svg">
<path d="M26.1162 52.2781C40.288 52.2781 51.7765 40.7895 51.7765 26.6177C51.7765 12.4459 40.288 0.957352 26.1162 0.957352C11.9443 0.957352 0.455811 12.4459 0.455811 26.6177C0.455811 40.7895 11.9443 52.2781 26.1162 52.2781Z" fill="url(#paint0_linear)"/>
<path opacity="0.15" d="M51.917 26.6175C51.917 40.8185 40.7389 52.2778 26.9596 52.2778C26.0457 52.2778 25.1318 52.2075 24.2178 52.1372C36.6614 50.7312 46.3631 39.8343 46.3631 26.6175C46.3631 13.4006 36.6614 2.50377 24.2178 1.09772C25.1318 1.02742 26.0457 0.957108 26.9596 0.957108C40.7389 0.957108 51.917 12.4164 51.917 26.6175Z" fill="url(#paint1_linear)"/>
<path d="M39.8252 25.0719C39.8252 24.861 39.6143 24.6501 39.4034 24.6501H29.2095V21.135C29.2095 20.9241 28.9986 20.7132 28.7877 20.7132H25.9756H25.2726V19.2368C25.2726 18.7447 25.2023 18.3229 24.9914 17.9011C24.8508 17.4793 24.5695 17.1278 24.218 16.7762C23.8665 16.4247 23.515 16.2138 23.0932 16.0029C22.6714 15.792 22.1793 15.7217 21.7574 15.7217C21.2653 15.7217 20.8435 15.792 20.4217 16.0029C19.9999 15.792 19.5078 15.7217 19.086 15.7217C18.5938 15.7217 18.172 15.792 17.7502 16.0029C17.3284 16.1435 16.9769 16.4247 16.6254 16.7762C16.2739 17.1278 16.063 17.4793 15.8521 17.9011C15.6412 18.3229 15.5708 18.815 15.5708 19.2368V20.7835H12.0557C11.8448 20.7835 11.6339 20.9944 11.6339 21.2053V40.1166C11.6339 40.3275 11.8448 40.5384 12.0557 40.5384H25.9756H28.7877H39.4034C39.6143 40.5384 39.8252 40.3275 39.8252 40.1166V25.0719ZM21.8981 16.5653C22.6011 16.5653 23.2338 16.8465 23.7962 17.3387C24.2883 17.8308 24.5695 18.5338 24.5695 19.2368V20.7835H22.6011V19.2368C22.6011 18.7447 22.5308 18.3229 22.3198 17.9011C22.1792 17.4793 21.8981 17.1278 21.5465 16.7762C21.4762 16.7059 21.4762 16.7059 21.4059 16.6356C21.5465 16.5653 21.6871 16.5653 21.8981 16.5653ZM20.492 16.9871C20.6326 17.1277 20.8435 17.1981 20.9841 17.3387C21.4762 17.8308 21.7574 18.5338 21.7574 19.2368V20.7835H19.2266V19.2368C19.2266 18.5338 19.5078 17.9011 19.9999 17.3387C20.1405 17.1981 20.2811 17.0574 20.492 16.9871ZM17.1878 17.3387C17.6799 16.8465 18.3829 16.5653 19.086 16.5653C19.2266 16.5653 19.3672 16.5653 19.5781 16.6356C19.5078 16.7059 19.5078 16.7059 19.4375 16.7762C19.086 17.1278 18.8751 17.4793 18.6642 17.9011C18.4533 18.3229 18.3829 18.815 18.3829 19.2368V20.7835H16.4145V19.2368C16.4145 18.5338 16.6957 17.8308 17.1878 17.3387ZM25.6241 39.6948H12.5478V21.6271H15.6411V24.5798C15.6411 24.7907 15.8521 25.0016 16.063 25.0016C16.2739 25.0016 16.4848 24.7907 16.4848 24.5798V21.6271H18.8047H21.7574V24.5798C21.7574 24.7907 21.9684 25.0016 22.1793 25.0016C22.3902 25.0016 22.6011 24.7907 22.6011 24.5798V21.6271H24.921H25.6241V39.6948ZM28.4362 39.6948H26.4677V21.6271H28.4362V39.6948ZM36.2398 39.6948H29.2798V29.9228C29.561 29.8525 29.8422 29.7822 30.1234 29.7119C30.4749 29.5713 30.8264 29.2901 31.1076 29.0089C31.3889 28.7277 31.5998 28.3761 31.8107 28.0246C31.9513 27.6028 32.0919 27.181 32.0919 26.7592C32.0919 26.5483 31.881 26.3374 31.6701 26.3374C31.4592 26.3374 31.2483 26.5483 31.2483 26.7592C31.2483 27.3919 30.967 27.9543 30.5452 28.4464C30.1937 28.7979 29.7719 29.0089 29.2798 29.0792V25.4938H36.2398V39.6948ZM38.9815 39.6948H37.0131V25.4938H38.9815V39.6948Z" fill="#2864AD"/>
<path d="M33.5682 13.6829C32.8652 13.6829 32.3028 14.2454 32.3028 14.9484C32.3028 15.6514 32.8652 16.2138 33.5682 16.2138C34.2712 16.2138 34.8337 15.6514 34.8337 14.9484C34.8337 14.2454 34.2712 13.6829 33.5682 13.6829ZM33.5682 15.3702C33.3573 15.3702 33.1464 15.1593 33.1464 14.9484C33.1464 14.7375 33.3573 14.5266 33.5682 14.5266C33.7791 14.5266 33.99 14.7375 33.99 14.9484C33.99 15.1593 33.7791 15.3702 33.5682 15.3702Z" fill="#2864AD"/>
<path d="M36.8724 17.0575C36.1694 17.0575 35.607 17.6199 35.607 18.3229C35.607 19.0259 36.1694 19.5883 36.8724 19.5883C37.5754 19.5883 38.1379 19.0259 38.1379 18.3229C38.1379 17.6199 37.5754 17.0575 36.8724 17.0575ZM36.8724 18.6744C36.6615 18.6744 36.4506 18.4635 36.4506 18.2526C36.4506 18.0417 36.6615 17.8308 36.8724 17.8308C37.0833 17.8308 37.2943 18.0417 37.2943 18.2526C37.2943 18.5338 37.1536 18.6744 36.8724 18.6744Z" fill="#2864AD"/>
<path d="M38.0676 13.8235C37.9269 13.6829 37.6457 13.6829 37.5051 13.8235L32.5136 18.815C32.373 18.9556 32.373 19.2368 32.5136 19.3774C32.584 19.4477 32.7246 19.518 32.7949 19.518C32.9355 19.518 33.0058 19.4477 33.0761 19.3774L38.0676 14.3859C38.2082 14.2453 38.2082 13.9641 38.0676 13.8235Z" fill="#2864AD"/>
<path d="M39.4033 11.9957H31.0373C30.8264 11.9957 30.6155 12.2066 30.6155 12.4175V12.4878V12.5581V15.2296C30.6155 15.4405 30.8264 15.6514 31.0373 15.6514C31.2482 15.6514 31.4591 15.4405 31.4591 15.2296V12.8393H38.9815V19.9399L35.2555 21.9786L31.5295 19.9399V16.8465C31.5295 16.6356 31.3185 16.4247 31.1076 16.4247C30.8967 16.4247 30.6858 16.6356 30.6858 16.8465V20.1508C30.6858 20.1508 30.6858 20.1508 30.6858 20.2211C30.6858 20.2914 30.6858 20.2913 30.7561 20.3617C30.8264 20.432 30.8264 20.5023 30.8967 20.5023L35.0446 22.7519C35.1149 22.7519 35.1852 22.8222 35.2555 22.8222C35.3258 22.8222 35.3961 22.8223 35.4664 22.7519L39.6142 20.5023C39.6845 20.5023 39.7548 20.432 39.7548 20.3617C39.7548 20.2913 39.8251 20.2211 39.8251 20.1508V12.3472C39.8251 12.2066 39.6142 11.9957 39.4033 11.9957Z" fill="#2864AD"/>
<defs>
<linearGradient id="paint0_linear" x1="0.455811" y1="26.6177" x2="51.7765" y2="26.6177" gradientUnits="userSpaceOnUse">
<stop offset="0.2923" stop-color="#7FAEFF"/>
<stop offset="0.4243" stop-color="#74A3FF"/>
<stop offset="0.6194" stop-color="#6C9BFF"/>
<stop offset="1" stop-color="#6A99FF"/>
</linearGradient>
<linearGradient id="paint1_linear" x1="38.0674" y1="0.957108" x2="38.0674" y2="52.2778" gradientUnits="userSpaceOnUse">
<stop offset="0.0051282" stop-color="white" stop-opacity="0"/>
<stop offset="1" stop-color="white"/>
</linearGradient>
</defs>
</svg>
