<svg width="44" height="44" viewBox="0 0 44 44" fill="none" xmlns="http://www.w3.org/2000/svg">
<path d="M21.7522 43.4917C33.5945 43.4917 43.1945 33.8917 43.1945 22.0495C43.1945 10.2073 33.5945 0.6073 21.7522 0.6073C9.91004 0.6073 0.310028 10.2073 0.310028 22.0495C0.310028 33.8917 9.91004 43.4917 21.7522 43.4917Z" fill="url(#paint0_linear)"/>
<path d="M25.5486 8.48122H24.2831C23.9316 8.48122 23.5801 8.27031 23.3692 7.9891C22.8771 7.35638 22.174 7.00487 21.4007 7.00487C20.6274 7.00487 19.9244 7.35638 19.4323 7.9891C19.2214 8.27031 18.8699 8.48122 18.5183 8.48122H17.2529C16.2686 8.48122 15.4953 9.25455 15.4953 10.2388V12.9103C15.4953 13.1915 15.7062 13.4024 15.9874 13.4024H26.7437C27.0249 13.4024 27.2358 13.1915 27.2358 12.9103V10.2388C27.2358 9.25455 26.4625 8.48122 25.5486 8.48122ZM26.3219 12.4181H16.4796V10.2388C16.4796 9.81697 16.8311 9.46545 17.2529 9.46545H18.5183C19.2214 9.46545 19.8541 9.11393 20.2056 8.62181C20.4868 8.2703 20.9086 8.0594 21.4007 8.0594C21.8928 8.0594 22.3147 8.2703 22.5959 8.62181C23.0177 9.18423 23.6504 9.46545 24.2831 9.46545H25.5486C25.9704 9.46545 26.3219 9.81697 26.3219 10.2388V12.4181Z" fill="#2864AD"/>
<path d="M30.1885 9.46545H26.7437C26.4625 9.46545 26.2516 9.67634 26.2516 9.95755V12.4181H16.4796V9.95755C16.4796 9.67634 16.2686 9.46545 15.9874 9.46545H12.5426C11.2069 9.46545 10.0821 10.5903 10.0821 11.926V33.9307C10.0821 35.2664 11.2069 36.3912 12.5426 36.3912H30.1182C31.454 36.3912 32.5788 35.2664 32.5788 33.9307V11.926C32.6491 10.5903 31.5243 9.46545 30.1885 9.46545ZM31.6649 33.9307C31.6649 34.7743 31.0321 35.407 30.1885 35.407H12.6129C11.7693 35.407 11.1366 34.7743 11.1366 33.9307V11.926C11.1366 11.0824 11.7693 10.4497 12.6129 10.4497H15.5656V12.9103C15.5656 13.1915 15.7766 13.4024 16.0578 13.4024H26.814C27.0952 13.4024 27.3061 13.1915 27.3061 12.9103V10.4497H30.2588C31.1024 10.4497 31.7352 11.0824 31.7352 11.926L31.6649 33.9307Z" fill="#2864AD"/>
<path d="M29.2043 11.4339H26.7437C26.4625 11.4339 26.2516 11.6448 26.2516 11.926V12.4181H16.4796V11.926C16.4796 11.6448 16.2687 11.4339 15.9874 11.4339H13.5269C12.6832 11.4339 12.0505 12.0666 12.0505 12.9103V32.9464C12.0505 33.7901 12.6832 34.4228 13.5269 34.4228H29.2043C30.0479 34.4228 30.6807 33.7901 30.6807 32.9464V12.9103C30.6807 12.0666 30.0479 11.4339 29.2043 11.4339ZM29.6964 32.9464C29.6964 33.2276 29.4855 33.4386 29.2043 33.4386H13.5269C13.2456 33.4386 13.0347 33.2276 13.0347 32.9464V12.9103C13.0347 12.629 13.2456 12.4181 13.5269 12.4181H15.4953V12.9103C15.4953 13.1915 15.7062 13.4024 15.9874 13.4024H26.7437C27.0249 13.4024 27.2358 13.1915 27.2358 12.9103V12.4181H29.2043C29.4855 12.4181 29.6964 12.629 29.6964 12.9103V32.9464Z" fill="#2864AD"/>
<path d="M25.3376 15.863H20.4165C20.1353 15.863 19.9244 16.0739 19.9244 16.3551C19.9244 16.6363 20.1353 16.8472 20.4165 16.8472H25.3376C25.6188 16.8472 25.8298 16.6363 25.8298 16.3551C25.8298 16.0739 25.5485 15.863 25.3376 15.863Z" fill="#2864AD"/>
<path d="M28.2201 15.863H27.2358C26.9546 15.863 26.7437 16.0739 26.7437 16.3551C26.7437 16.6363 26.9546 16.8472 27.2358 16.8472H28.2201C28.5013 16.8472 28.7122 16.6363 28.7122 16.3551C28.7122 16.0739 28.5013 15.863 28.2201 15.863Z" fill="#2864AD"/>
<path d="M21.8928 17.7611H20.4165C20.1353 17.7611 19.9244 17.972 19.9244 18.2532C19.9244 18.5345 20.1353 18.7454 20.4165 18.7454H21.8928C22.174 18.7454 22.385 18.5345 22.385 18.2532C22.385 17.972 22.174 17.7611 21.8928 17.7611Z" fill="#2864AD"/>
<path d="M28.2201 17.7611H23.791C23.5098 17.7611 23.2989 17.972 23.2989 18.2532C23.2989 18.5345 23.5098 18.7454 23.791 18.7454H28.2201C28.5013 18.7454 28.7122 18.5345 28.7122 18.2532C28.7122 17.972 28.5013 17.7611 28.2201 17.7611Z" fill="#2864AD"/>
<path d="M25.3376 22.6823H20.4165C20.1353 22.6823 19.9244 22.8932 19.9244 23.1744C19.9244 23.4556 20.1353 23.6665 20.4165 23.6665H25.3376C25.6188 23.6665 25.8298 23.4556 25.8298 23.1744C25.8298 22.8932 25.5485 22.6823 25.3376 22.6823Z" fill="#2864AD"/>
<path d="M28.2201 22.6823H27.2358C26.9546 22.6823 26.7437 22.8932 26.7437 23.1744C26.7437 23.4556 26.9546 23.6665 27.2358 23.6665H28.2201C28.5013 23.6665 28.7122 23.4556 28.7122 23.1744C28.7122 22.8932 28.5013 22.6823 28.2201 22.6823Z" fill="#2864AD"/>
<path d="M21.8928 24.6508H20.4165C20.1353 24.6508 19.9244 24.8617 19.9244 25.1429C19.9244 25.4241 20.1353 25.635 20.4165 25.635H21.8928C22.174 25.635 22.385 25.4241 22.385 25.1429C22.385 24.8617 22.174 24.6508 21.8928 24.6508Z" fill="#2864AD"/>
<path d="M28.2201 24.6508H23.791C23.5098 24.6508 23.2989 24.8617 23.2989 25.1429C23.2989 25.4241 23.5098 25.635 23.791 25.635H28.2201C28.5013 25.635 28.7122 25.4241 28.7122 25.1429C28.7122 24.8617 28.5013 24.6508 28.2201 24.6508Z" fill="#2864AD"/>
<path d="M22.385 8.97332H20.4165C20.1353 8.97332 19.9244 9.18424 19.9244 9.46545V11.4339C19.9244 11.7151 20.1353 11.926 20.4165 11.926H22.385C22.6662 11.926 22.877 11.7151 22.877 11.4339V9.46545C22.877 9.18424 22.6662 8.97332 22.385 8.97332ZM21.8928 10.9418H20.9086V9.95755H21.8928V10.9418Z" fill="#2864AD"/>
<path d="M16.8311 17.9017L15.3547 16.4254C15.1438 16.2145 14.8626 16.2145 14.6517 16.4254C14.4408 16.6363 14.4408 16.9175 14.6517 17.1284L16.1281 18.6048C16.1984 18.6751 16.339 18.7453 16.4796 18.7453C16.6202 18.7453 16.7608 18.6751 16.8311 18.6048C17.042 18.4642 17.042 18.1126 16.8311 17.9017Z" fill="#2864AD"/>
<path d="M19.2213 14.4569C19.0104 14.3163 18.7292 14.3163 18.5183 14.5975L16.0577 18.0423C15.9171 18.2532 15.9171 18.5344 16.1983 18.7453C16.2686 18.8156 16.4092 18.8157 16.4795 18.8157C16.6201 18.8157 16.7607 18.7454 16.9013 18.6048L19.3619 15.1599C19.5025 14.949 19.4322 14.5975 19.2213 14.4569Z" fill="#2864AD"/>
<path d="M18.5886 18.3235C18.3074 18.2532 18.0262 18.3938 18.0262 18.6751C17.8856 19.3078 17.2529 19.7999 16.5498 19.7999C15.8468 19.7999 15.2141 19.3078 15.0735 18.6751C15.0032 18.3938 14.722 18.2532 14.5111 18.3235C14.2299 18.3938 14.0893 18.6751 14.1596 18.886C14.4408 19.9405 15.425 20.7138 16.6202 20.7138C17.8153 20.7138 18.7995 19.9405 19.0808 18.886C19.0105 18.6047 18.8698 18.3235 18.5886 18.3235Z" fill="#2864AD"/>
<path d="M17.1123 14.4569C16.4796 14.3163 15.8468 14.3866 15.2844 14.7381C15.0735 14.8787 15.0032 15.1599 15.1438 15.4411C15.2141 15.5817 15.425 15.652 15.5656 15.652C15.6359 15.652 15.7062 15.652 15.7765 15.5817C16.128 15.3708 16.4795 15.3708 16.9014 15.4411C17.1826 15.5114 17.4638 15.3708 17.4638 15.0896C17.5341 14.8084 17.3935 14.5272 17.1123 14.4569Z" fill="#2864AD"/>
<path d="M16.4796 22.1902C15.425 22.1902 14.5111 23.0338 14.5111 24.1586C14.5111 25.2132 15.3547 26.1271 16.4796 26.1271C17.5341 26.1271 18.448 25.2835 18.448 24.1586C18.448 23.0338 17.6044 22.1902 16.4796 22.1902ZM16.4796 25.1429C15.9171 25.1429 15.4953 24.7211 15.4953 24.1586C15.4953 23.5962 15.9171 23.1744 16.4796 23.1744C17.042 23.1744 17.4638 23.5962 17.4638 24.1586C17.4638 24.7211 17.042 25.1429 16.4796 25.1429Z" fill="#2864AD"/>
<path d="M25.3376 28.5174H20.4165C20.1353 28.5174 19.9244 28.7283 19.9244 29.0095C19.9244 29.2907 20.1353 29.5016 20.4165 29.5016H25.3376C25.6188 29.5016 25.8298 29.2907 25.8298 29.0095C25.8298 28.7986 25.5485 28.5174 25.3376 28.5174Z" fill="#2864AD"/>
<path d="M28.2201 28.5174H27.2358C26.9546 28.5174 26.7437 28.7283 26.7437 29.0095C26.7437 29.2907 26.9546 29.5016 27.2358 29.5016H28.2201C28.5013 29.5016 28.7122 29.2907 28.7122 29.0095C28.7122 28.7986 28.5013 28.5174 28.2201 28.5174Z" fill="#2864AD"/>
<path d="M21.8928 30.4859H20.4165C20.1353 30.4859 19.9244 30.6968 19.9244 30.978C19.9244 31.2592 20.1353 31.4701 20.4165 31.4701H21.8928C22.174 31.4701 22.385 31.2592 22.385 30.978C22.385 30.6968 22.174 30.4859 21.8928 30.4859Z" fill="#2864AD"/>
<path d="M28.2201 30.4859H23.791C23.5098 30.4859 23.2989 30.6968 23.2989 30.978C23.2989 31.2592 23.5098 31.4701 23.791 31.4701H28.2201C28.5013 31.4701 28.7122 31.2592 28.7122 30.978C28.7122 30.6968 28.5013 30.4859 28.2201 30.4859Z" fill="#2864AD"/>
<path d="M16.4796 28.0253C15.425 28.0253 14.5111 28.8689 14.5111 29.9937C14.5111 31.0483 15.3547 31.9622 16.4796 31.9622C17.5341 31.9622 18.448 31.1186 18.448 29.9937C18.448 28.9392 17.6044 28.0253 16.4796 28.0253ZM16.4796 30.978C15.9171 30.978 15.4953 30.5561 15.4953 29.9937C15.4953 29.4313 15.9171 29.0095 16.4796 29.0095C17.042 29.0095 17.4638 29.4313 17.4638 29.9937C17.4638 30.5561 17.042 30.978 16.4796 30.978Z" fill="#2864AD"/>
<path opacity="0.15" d="M43.1943 22.0495C43.1943 33.8603 33.8441 43.4917 22.3848 43.4917C21.6114 43.4917 20.8381 43.4214 20.0648 43.3511C30.4695 42.1559 38.6246 33.0869 38.6246 22.0495C38.6246 11.012 30.5398 1.94299 20.0648 0.747852C20.8381 0.67755 21.6114 0.607239 22.3848 0.607239C33.8441 0.607239 43.1943 10.2387 43.1943 22.0495Z" fill="url(#paint1_linear)"/>
<defs>
<linearGradient id="paint0_linear" x1="0.310028" y1="22.0495" x2="43.1945" y2="22.0495" gradientUnits="userSpaceOnUse">
<stop offset="0.2923" stop-color="#7FAEFF"/>
<stop offset="0.4243" stop-color="#74A3FF"/>
<stop offset="0.6194" stop-color="#6C9BFF"/>
<stop offset="1" stop-color="#6A99FF"/>
</linearGradient>
<linearGradient id="paint1_linear" x1="31.5944" y1="0.607239" x2="31.5944" y2="43.4917" gradientUnits="userSpaceOnUse">
<stop offset="0.0051282" stop-color="white" stop-opacity="0"/>
<stop offset="1" stop-color="white"/>
</linearGradient>
</defs>
</svg>
