<svg width="61" height="61" viewBox="0 0 61 61" fill="none" xmlns="http://www.w3.org/2000/svg">
<path d="M30.2046 60.0139C46.4731 60.0139 59.6613 46.8257 59.6613 30.5572C59.6613 14.2887 46.4731 1.10049 30.2046 1.10049C13.9361 1.10049 0.747864 14.2887 0.747864 30.5572C0.747864 46.8257 13.9361 60.0139 30.2046 60.0139Z" fill="url(#paint0_linear)"/>
<path opacity="0.15" d="M60.1533 30.557C60.1533 46.7968 47.3583 60.0137 31.5403 60.0137C30.4857 60.0137 29.4312 59.9434 28.3766 59.8028C42.7183 58.1858 53.8261 45.672 53.8261 30.4867C53.8261 15.3014 42.7183 2.85787 28.3766 1.17062C29.4312 1.03001 30.4857 0.959717 31.5403 0.959717C47.3583 1.10032 60.1533 14.3171 60.1533 30.557Z" fill="url(#paint1_linear)"/>
<path d="M48.8347 34.6356L42.7184 21.2781L44.1948 20.5048L43.6323 19.38L42.156 20.083L41.945 19.6612C41.8044 19.38 41.453 19.2393 41.1015 19.38C40.9608 19.4503 40.8905 19.5206 40.8202 19.6612L40.6797 20.0127C39.6251 19.5206 38.5002 19.2394 37.3051 19.2394H32.1027V17.9739H33.3682V16.7085H32.3137L32.7355 14.9509C33.087 13.5449 32.2434 12.2091 30.8373 11.8576C29.4313 11.5061 28.0955 12.3497 27.744 13.7558C27.6737 14.1776 27.6737 14.5994 27.744 15.0212L28.1658 16.7788H27.1113V18.0442H28.3767V19.3097H23.1744C21.9792 19.3097 20.8543 19.5909 19.7998 20.083L19.6592 19.7315C19.5186 19.4503 19.1671 19.3097 18.8156 19.4503C18.6749 19.5206 18.6047 19.5909 18.5344 19.7315L18.3235 20.1533L16.8471 19.4503L16.2847 20.5751L17.761 21.3485L11.6447 34.7059C11.5744 34.7762 11.5745 34.8465 11.5745 34.9871C11.5745 37.3774 13.5429 39.3458 15.9332 39.3458H22.1198C24.5101 39.3458 26.4785 37.3774 26.4785 34.9871C26.4785 34.9168 26.4785 34.7762 26.4082 34.7059L20.292 21.2781C21.2059 20.8563 22.1198 20.6454 23.1041 20.6454H28.3064V43.3531L26.1973 45.4622H23.9477C22.2604 45.4622 20.8543 46.8682 20.8543 48.5554C20.8543 48.9069 21.1356 49.1882 21.4871 49.1882H38.8517C39.2032 49.1882 39.4845 48.9069 39.4845 48.5554C39.4845 46.8682 38.0784 45.4622 36.3911 45.4622H34.1415L32.0324 43.3531V20.6454H37.2348C38.2191 20.6454 39.2033 20.8563 40.0469 21.2781L33.9306 34.7059C33.8603 34.7762 33.8603 34.8465 33.8603 34.9871C33.8603 37.3774 35.8288 39.3458 38.2191 39.3458H44.4056C46.7959 39.3458 48.7644 37.3774 48.7644 34.9871C48.905 34.8465 48.905 34.7059 48.8347 34.6356ZM22.1901 38.0101H16.0035C14.5271 38.0101 13.2617 36.9555 12.9805 35.5495H25.2834C24.9319 36.9555 23.6665 38.0101 22.1901 38.0101ZM24.9319 34.2841H13.1914L18.8859 21.8405C18.9562 21.8405 19.0968 21.8405 19.2374 21.8405L24.9319 34.2841ZM29.2203 13.6855C29.7125 13.1231 30.556 13.0527 31.1185 13.5449C31.1888 13.6152 31.2591 13.6152 31.2591 13.6855C31.5403 14.037 31.6106 14.3885 31.47 14.8103L30.9779 16.9194H29.4313L28.9391 14.8103C28.8688 14.3885 29.0094 13.9667 29.2203 13.6855ZM29.6421 19.38V18.1145H30.9076V19.38H29.6421ZM30.9076 20.6454V43.0016H29.6421V20.6454H30.9076ZM36.4615 46.7276C37.2348 46.7276 37.9379 47.2197 38.2191 47.993H22.2604C22.5416 47.2197 23.2446 46.7276 24.0179 46.7276H36.4615ZM32.5245 45.4622H28.0955L29.3609 44.1967H31.3294L32.5245 45.4622ZM41.3123 21.8405C41.3826 21.9108 41.5232 21.8405 41.5935 21.8405L47.288 34.2841H35.5476L41.3123 21.8405ZM44.5463 38.0101H38.3596C36.8833 38.0101 35.6178 36.9555 35.3366 35.5495H47.6395C47.288 36.9555 46.0226 38.0101 44.5463 38.0101Z" fill="#2864AD"/>
<defs>
<linearGradient id="paint0_linear" x1="0.749692" y1="30.5572" x2="59.6833" y2="30.5572" gradientUnits="userSpaceOnUse">
<stop offset="0.2923" stop-color="#7FAEFF"/>
<stop offset="0.4243" stop-color="#74A3FF"/>
<stop offset="0.6194" stop-color="#6C9BFF"/>
<stop offset="1" stop-color="#6A99FF"/>
</linearGradient>
<linearGradient id="paint1_linear" x1="44.2482" y1="1.0902" x2="44.2482" y2="60.0238" gradientUnits="userSpaceOnUse">
<stop offset="0.0051282" stop-color="white" stop-opacity="0"/>
<stop offset="1" stop-color="white"/>
</linearGradient>
</defs>
</svg>
