<svg width="56" height="57" viewBox="0 0 56 57" fill="none" xmlns="http://www.w3.org/2000/svg">
<path d="M28.0513 56.3461C43.3879 56.3461 55.8207 43.9133 55.8207 28.5767C55.8207 13.2401 43.3879 0.807255 28.0513 0.807255C12.7147 0.807255 0.28186 13.2401 0.28186 28.5767C0.28186 43.9133 12.7147 56.3461 28.0513 56.3461Z" fill="url(#paint0_linear)"/>
<path opacity="0.15" d="M55.68 28.5765C55.68 43.9024 43.588 56.3459 28.6839 56.3459C27.6997 56.3459 26.6451 56.2756 25.6609 56.2053C39.1589 54.6586 49.6339 42.9181 49.6339 28.5765C49.6339 14.2348 39.1589 2.4943 25.6609 0.947647C26.6451 0.807042 27.6294 0.807034 28.6839 0.807034C43.588 0.807034 55.68 13.2506 55.68 28.5765Z" fill="url(#paint1_linear)"/>
<path d="M26.8561 35.607C27.1374 35.3258 27.1374 34.8337 26.8561 34.5525C26.5749 34.2713 26.0828 34.2713 25.8016 34.5525C25.5204 34.8337 25.5204 35.3258 25.8016 35.607C26.0828 35.8882 26.5749 35.8882 26.8561 35.607Z" fill="#2864AD"/>
<path d="M23.4113 18.3126C23.4113 22.7417 26.9968 26.3271 31.4258 26.3271C35.8549 26.3271 39.4402 22.7417 39.4402 18.3126C39.4402 13.8836 35.8549 10.2982 31.4258 10.2982C26.9968 10.2982 23.4113 13.8836 23.4113 18.3126ZM37.9639 18.3126C37.9639 21.898 35.0113 24.8508 31.4258 24.8508C27.8404 24.8508 24.8877 21.898 24.8877 18.3126C24.8877 14.7272 27.8404 11.7745 31.4258 11.7745C35.0113 11.7745 37.9639 14.6569 37.9639 18.3126Z" fill="#2864AD"/>
<path d="M18.0684 47.3475C18.3496 47.6287 18.8417 47.6287 19.1229 47.3475L22.638 43.9027C23.2707 43.27 23.4113 42.4263 23.1301 41.653L23.9034 40.95C24.3252 40.5282 24.8174 40.3173 25.4501 40.3173H35.1518C36.839 40.3173 38.456 39.6846 39.7214 38.4894C39.7917 38.4191 39.3699 38.9815 46.3299 30.6155C47.3844 29.4204 47.2438 27.5222 45.9784 26.538C44.7832 25.4835 42.9553 25.6241 41.9008 26.8895L37.6124 31.3186C37.0499 30.6858 36.2766 30.264 35.3627 30.264H27.2779C26.1531 29.7719 24.8876 29.561 23.6222 29.561C20.1071 29.561 17.0841 31.178 15.3968 34.201C14.6938 34.0604 13.9907 34.2713 13.4283 34.8337L9.98358 38.2785C9.70237 38.5597 9.70237 39.0518 9.98358 39.333L18.0684 47.3475ZM23.5519 30.8265C24.6767 30.8265 25.7312 31.0374 26.7858 31.4592C26.8561 31.5295 26.9967 31.5295 27.067 31.5295H35.3627C36.136 31.5295 36.839 32.1622 36.839 33.0058C36.839 33.7791 36.2063 34.4822 35.3627 34.4822H29.4573C29.0355 34.4822 28.7543 34.8337 28.7543 35.1852C28.7543 35.607 29.1058 35.8882 29.4573 35.8882H35.3627C36.9797 35.8882 38.2451 34.5525 38.2451 33.0058C38.2451 32.8652 38.2451 32.7246 38.2451 32.6543C42.3929 28.3659 42.9554 27.8034 43.0257 27.7331C43.5178 27.1004 44.4317 27.0301 45.0644 27.5925C45.6971 28.0847 45.7675 28.9986 45.205 29.6313L38.6669 37.4349C37.6827 38.3488 36.4875 38.8409 35.1518 38.8409H25.4501C24.5362 38.8409 23.6222 39.1924 22.9191 39.8955L22.2865 40.4579L16.5919 34.7634C17.9277 32.2325 20.4586 30.8265 23.5519 30.8265ZM14.4126 35.6773C14.6235 35.4664 15.0453 35.3961 15.3265 35.607C15.4671 35.6773 15.1156 35.3258 21.6538 41.8639C21.935 42.1451 21.935 42.6372 21.6538 42.9185L18.6307 45.8712L11.4599 38.7003L14.4126 35.6773Z" fill="#2864AD"/>
<path d="M30.5119 13.9539V14.7975C29.6683 15.0787 29.0356 15.9223 29.0356 16.8363C29.0356 18.0314 30.0198 19.0156 31.2149 19.0156C31.6367 19.0156 31.9179 19.3672 31.9179 19.7187C31.9179 20.1405 31.5664 20.4217 31.2149 20.4217C30.9337 20.4217 30.5822 20.2108 30.3009 19.8593C30.0197 19.5781 29.5979 19.5078 29.2464 19.789C28.9652 20.0702 28.8949 20.492 29.1761 20.8435C29.5979 21.3356 30.0198 21.6168 30.5119 21.7574V22.6011C30.5119 23.0229 30.8634 23.3041 31.2149 23.3041C31.5664 23.3041 31.9179 22.9526 31.9179 22.6011V21.7574C32.7616 21.4762 33.3943 20.6326 33.3943 19.7187C33.3943 18.5235 32.4101 17.5393 31.2149 17.5393C30.7931 17.5393 30.5119 17.1878 30.5119 16.8363C30.5119 16.4145 30.8634 16.1332 31.2149 16.1332C31.4961 16.1332 31.7773 16.2738 31.9882 16.4848C32.2694 16.766 32.7615 16.766 33.0428 16.4848C33.324 16.2035 33.324 15.7114 33.0428 15.4302C32.6912 15.0787 32.2694 14.8678 31.9882 14.7272V13.8836C31.9882 13.4618 31.6367 13.1806 31.2852 13.1806C30.9337 13.1806 30.5119 13.5321 30.5119 13.9539Z" fill="#2864AD"/>
<defs>
<linearGradient id="paint0_linear" x1="0.28186" y1="28.5767" x2="55.8207" y2="28.5767" gradientUnits="userSpaceOnUse">
<stop offset="0.2923" stop-color="#7FAEFF"/>
<stop offset="0.4243" stop-color="#74A3FF"/>
<stop offset="0.6194" stop-color="#6C9BFF"/>
<stop offset="1" stop-color="#6A99FF"/>
</linearGradient>
<linearGradient id="paint1_linear" x1="40.7056" y1="0.807034" x2="40.7056" y2="56.3459" gradientUnits="userSpaceOnUse">
<stop offset="0.0051282" stop-color="white" stop-opacity="0"/>
<stop offset="1" stop-color="white"/>
</linearGradient>
</defs>
</svg>
