<svg width="62" height="62" viewBox="0 0 62 62" fill="none" xmlns="http://www.w3.org/2000/svg">
<path d="M30.873 61.7336C47.7627 61.7336 61.4546 48.0418 61.4546 31.1521C61.4546 14.2624 47.7627 0.570587 30.873 0.570587C13.9833 0.570587 0.291504 14.2624 0.291504 31.1521C0.291504 48.0418 13.9833 61.7336 30.873 61.7336Z" fill="url(#paint0_linear)"/>
<path d="M41.6293 32.2773C40.5044 32.2773 39.5905 32.9803 39.1687 33.9645H31.576V35.933H39.1687C39.5905 36.9172 40.5044 37.6203 41.6293 37.6203C43.1056 37.6203 44.3007 36.4251 44.3007 34.9488C44.3007 33.4724 43.1056 32.2773 41.6293 32.2773ZM41.6293 35.5815C41.2777 35.5815 40.9965 35.3003 40.9965 34.9488C40.9965 34.5973 41.2777 34.3161 41.6293 34.3161C41.9808 34.3161 42.2619 34.5973 42.2619 34.9488C42.2619 35.3003 41.9808 35.5815 41.6293 35.5815Z" fill="#2864AD"/>
<path d="M45.0741 14.6314H16.9531C15.2659 14.6314 13.9302 15.9671 13.9302 17.6544V45.7753C13.9302 47.4626 15.2659 48.7983 16.9531 48.7983H45.0741C46.7613 48.7983 48.0971 47.4626 48.0971 45.7753V17.6544C48.0971 15.9671 46.7613 14.6314 45.0741 14.6314ZM46.1286 45.7051C46.1286 46.2675 45.7069 46.6893 45.1444 46.6893H17.0235C16.4611 46.6893 16.0392 46.2675 16.0392 45.7051V23.2786H46.1286V45.7051ZM46.1286 21.3101H16.0392V17.6544C16.0392 17.092 16.4611 16.6702 17.0235 16.6702H45.1444C45.7069 16.6702 46.1286 17.092 46.1286 17.6544V21.3101Z" fill="#2864AD"/>
<path d="M25.6706 19.9744C26.2142 19.9744 26.6548 19.5337 26.6548 18.9902C26.6548 18.4466 26.2142 18.0059 25.6706 18.0059C25.127 18.0059 24.6863 18.4466 24.6863 18.9902C24.6863 19.5337 25.127 19.9744 25.6706 19.9744Z" fill="#2864AD"/>
<path d="M22.2961 19.9744C22.8397 19.9744 23.2803 19.5337 23.2803 18.9902C23.2803 18.4466 22.8397 18.0059 22.2961 18.0059C21.7526 18.0059 21.3119 18.4466 21.3119 18.9902C21.3119 19.5337 21.7526 19.9744 22.2961 19.9744Z" fill="#2864AD"/>
<path d="M18.9919 19.9744C19.5355 19.9744 19.9761 19.5337 19.9761 18.9902C19.9761 18.4466 19.5355 18.0059 18.9919 18.0059C18.4483 18.0059 18.0076 18.4466 18.0076 18.9902C18.0076 19.5337 18.4483 19.9744 18.9919 19.9744Z" fill="#2864AD"/>
<path d="M23.7724 27.567L17.7264 30.6603V37.8312L23.7724 40.8542L29.8184 37.8312V30.7306L23.7724 27.567ZM22.7882 38.1124L19.6949 36.5657V33.7537L22.7882 35.3003V38.1124ZM20.1167 31.7149L23.8427 29.8167L27.5688 31.7149L23.8427 33.5427L20.1167 31.7149ZM27.8499 36.5657L24.7567 38.1124V35.3003L27.8499 33.7537V36.5657Z" fill="#2864AD"/>
<path d="M36.7081 27.2858C36.2863 26.3016 35.3724 25.5986 34.2475 25.5986C32.7712 25.5986 31.576 26.7937 31.576 28.2701C31.576 29.7464 32.7712 30.9416 34.2475 30.9416C35.3724 30.9416 36.2863 30.2385 36.7081 29.2543H44.3007V27.2858H36.7081ZM34.2475 28.9731C33.896 28.9731 33.6148 28.6919 33.6148 28.3404C33.6148 27.9888 33.896 27.7076 34.2475 27.7076C34.599 27.7076 34.8802 27.9888 34.8802 28.3404C34.8802 28.6919 34.599 28.9731 34.2475 28.9731Z" fill="#2864AD"/>
<path d="M40.7153 40.573C40.2935 39.5887 39.3796 38.8857 38.2547 38.8857C37.1299 38.8857 36.2159 39.5887 35.7941 40.573H31.576V42.5414H35.7941C36.2159 43.5257 37.1299 44.2287 38.2547 44.2287C39.3796 44.2287 40.2935 43.5257 40.7153 42.5414H44.3007V40.573H40.7153ZM38.2547 42.2602C37.9032 42.2602 37.622 41.979 37.622 41.6275C37.622 41.276 37.9032 40.9948 38.2547 40.9948C38.6062 40.9948 38.8875 41.276 38.8875 41.6275C38.8875 41.979 38.6062 42.2602 38.2547 42.2602Z" fill="#2864AD"/>
<path opacity="0.15" d="M61.4545 31.1521C61.4545 48.0246 48.1673 61.7336 31.7165 61.7336C30.5917 61.7336 29.5372 61.6633 28.4124 61.5227C43.2462 59.8354 54.846 46.8998 54.846 31.1521C54.846 15.4043 43.3165 2.46868 28.4124 0.781425C29.4669 0.64082 30.5917 0.570526 31.7165 0.570526C48.1673 0.570526 61.4545 14.2795 61.4545 31.1521Z" fill="url(#paint1_linear)"/>
<defs>
<linearGradient id="paint0_linear" x1="0.291504" y1="31.1521" x2="61.4546" y2="31.1521" gradientUnits="userSpaceOnUse">
<stop offset="0.2923" stop-color="#7FAEFF"/>
<stop offset="0.4243" stop-color="#74A3FF"/>
<stop offset="0.6194" stop-color="#6C9BFF"/>
<stop offset="1" stop-color="#6A99FF"/>
</linearGradient>
<linearGradient id="paint1_linear" x1="44.9334" y1="0.570526" x2="44.9334" y2="61.7336" gradientUnits="userSpaceOnUse">
<stop offset="0.0051282" stop-color="white" stop-opacity="0"/>
<stop offset="1" stop-color="white"/>
</linearGradient>
</defs>
</svg>
