<svg width="63" height="62" viewBox="0 0 63 62" fill="none" xmlns="http://www.w3.org/2000/svg">
<path d="M31.464 61.2477C48.3537 61.2477 62.0456 47.5558 62.0456 30.6661C62.0456 13.7764 48.3537 0.0845947 31.464 0.0845947C14.5743 0.0845947 0.882507 13.7764 0.882507 30.6661C0.882507 47.5558 14.5743 61.2477 31.464 61.2477Z" fill="url(#paint0_linear)"/>
<path d="M31.1125 9.29512C23.4495 9.29512 16.7005 16.0441 16.7005 23.7071C16.7005 31.3701 23.3792 38.1191 31.1125 38.1191C38.9161 38.1191 45.5245 31.2998 45.5245 23.7071C45.5245 16.0441 38.7755 9.29512 31.1125 9.29512ZM31.1125 36.5725C28.5113 36.5725 25.9101 35.6585 23.7308 34.0416C23.9417 30.1046 27.1756 27.0113 31.1125 27.0113C35.0494 27.0113 38.2833 30.1046 38.4942 34.0416C36.3149 35.6585 33.7137 36.5725 31.1125 36.5725ZM27.035 21.3168C27.035 19.0672 28.8628 17.2393 31.1125 17.2393C33.3622 17.2393 35.19 19.0672 35.19 21.3168C35.19 23.5665 33.3622 25.3944 31.1125 25.3944C28.8628 25.3944 27.035 23.5665 27.035 21.3168ZM39.9706 32.7761C39.4082 29.6125 37.2288 27.0817 34.3464 26.0271C35.8228 24.9726 36.807 23.2853 36.807 21.3168C36.807 18.1532 34.2058 15.552 31.0422 15.552C27.8786 15.552 25.2774 18.1532 25.2774 21.3168C25.2774 23.2853 26.2616 24.9726 27.738 26.0271C24.9259 27.152 22.7465 29.6828 22.1138 32.7761C19.6532 30.3155 18.1769 27.0816 18.1769 23.7774C18.1769 16.9581 24.1526 10.9824 30.9719 10.9824C37.7912 10.9824 43.7669 16.9581 43.7669 23.7774C43.9075 27.0816 42.5015 30.3155 39.9706 32.7761Z" fill="#2864AD"/>
<path d="M36.596 44.7275C36.5257 44.4463 36.2445 44.2354 35.9633 44.1651L33.1512 43.7432L31.8858 41.2124C31.7452 40.9312 31.464 40.7202 31.1828 40.7202C30.9016 40.7202 30.55 40.9312 30.4797 41.2124L29.2143 43.7432L26.4022 44.1651C26.121 44.2354 25.8398 44.4463 25.7695 44.7275C25.6992 45.0087 25.7695 45.3602 25.9804 45.5711L28.0192 47.5396L27.527 50.3517C27.4567 50.6329 27.5973 50.9844 27.8786 51.125C28.1598 51.3359 28.441 51.3359 28.7222 51.1953L31.2531 49.8596L33.7839 51.1953C34.0652 51.3359 34.4167 51.3359 34.6276 51.125C34.9088 50.9141 34.9791 50.6329 34.9791 50.3517L34.487 47.5396L36.5258 45.5711C36.5961 45.3602 36.6663 45.0087 36.596 44.7275ZM32.87 46.6959C32.6591 46.9069 32.5888 47.1881 32.6591 47.399L32.9403 49.0159L31.5343 48.2426C31.3937 48.1723 31.2531 48.1723 31.1828 48.1723C31.0422 48.1723 30.9016 48.1723 30.8313 48.2426L29.4252 49.0159L29.7064 47.399C29.7767 47.1178 29.6361 46.8366 29.4955 46.6959L28.3707 45.5711L29.9876 45.3602C30.2688 45.2899 30.4797 45.1493 30.6203 44.9384L31.3234 43.5323L32.0264 44.9384C32.167 45.1493 32.3779 45.3602 32.6591 45.3602L34.2761 45.5711L32.87 46.6959Z" fill="#2864AD"/>
<path d="M23.4495 44.7275C23.3792 44.4463 23.098 44.2354 22.8168 44.1651L20.0047 43.7432L18.7392 41.2124C18.5986 40.9312 18.3174 40.7202 18.0362 40.7202C17.755 40.7202 17.4738 40.9312 17.3332 41.2124L16.0678 43.7432L13.2557 44.1651C12.9745 44.2354 12.6933 44.4463 12.623 44.7275C12.5527 45.0087 12.6229 45.3602 12.8339 45.5711L14.8726 47.5396L14.3805 50.3517C14.3102 50.6329 14.4508 50.9844 14.732 51.125C15.0132 51.3359 15.2944 51.3359 15.5756 51.1953L18.1065 49.8596L20.6374 51.1953C20.9186 51.3359 21.2701 51.3359 21.481 51.125C21.7622 50.9141 21.8325 50.6329 21.8325 50.3517L21.3404 47.5396L23.3792 45.5711C23.4495 45.3602 23.5198 45.0087 23.4495 44.7275ZM19.7235 46.6959C19.5126 46.9069 19.4423 47.1881 19.5126 47.399L19.7938 49.0159L18.3877 48.2426C18.2471 48.1723 18.1065 48.1723 18.0362 48.1723C17.9659 48.1723 17.755 48.1723 17.6847 48.2426L16.2787 49.0159L16.5599 47.399C16.6302 47.1178 16.4896 46.8366 16.349 46.6959L15.2241 45.5711L16.8411 45.3602C17.1223 45.2899 17.3332 45.1493 17.4738 44.9384L18.1768 43.5323L18.8799 44.9384C19.0205 45.1493 19.2314 45.3602 19.5126 45.3602L21.1295 45.5711L19.7235 46.6959Z" fill="#2864AD"/>
<path d="M49.6723 44.7275C49.602 44.4463 49.3208 44.2354 49.0396 44.1651L46.2275 43.7432L44.962 41.2124C44.8214 40.9312 44.5402 40.7202 44.259 40.7202C43.9778 40.7202 43.6966 40.9312 43.556 41.2124L42.2905 43.7432L39.4784 44.1651C39.1972 44.2354 38.916 44.4463 38.8457 44.7275C38.7754 45.0087 38.8457 45.3602 39.0566 45.5711L41.0954 47.5396L40.6033 50.3517C40.533 50.6329 40.6736 50.9844 40.9548 51.125C41.236 51.3359 41.5172 51.3359 41.7984 51.1953L44.3293 49.8596L46.8602 51.1953C47.1414 51.3359 47.4929 51.3359 47.7038 51.125C47.985 50.9141 48.0553 50.6329 48.0553 50.3517L47.5632 47.5396L49.602 45.5711C49.7426 45.3602 49.8129 45.0087 49.6723 44.7275ZM46.0166 46.6959C45.8057 46.9069 45.7353 47.1881 45.8056 47.399L46.0869 49.0159L44.6808 48.2426C44.5402 48.1723 44.3996 48.1723 44.3293 48.1723C44.1887 48.1723 44.0481 48.1723 43.9778 48.2426L42.5717 49.0159L42.853 47.399C42.9233 47.1178 42.7826 46.8366 42.642 46.6959L41.5172 45.5711L43.1342 45.3602C43.4154 45.2899 43.6263 45.1493 43.7669 44.9384L44.4699 43.5323L45.1729 44.9384C45.3135 45.1493 45.5244 45.3602 45.8056 45.3602L47.4226 45.5711L46.0166 46.6959Z" fill="#2864AD"/>
<path opacity="0.15" d="M62.7484 30.6661C62.7484 47.5387 49.4613 61.2476 33.0105 61.2476C31.8857 61.2476 30.8311 61.1773 29.7063 61.0367C44.5401 59.3495 56.14 46.4138 56.14 30.6661C56.14 14.9184 44.6104 1.98272 29.7063 0.295463C30.7608 0.154858 31.8857 0.0845642 33.0105 0.0845642C49.4613 0.0845642 62.7484 13.7935 62.7484 30.6661Z" fill="url(#paint1_linear)"/>
<defs>
<linearGradient id="paint0_linear" x1="0.882507" y1="30.6661" x2="62.0456" y2="30.6661" gradientUnits="userSpaceOnUse">
<stop offset="0.2923" stop-color="#7FAEFF"/>
<stop offset="0.4243" stop-color="#74A3FF"/>
<stop offset="0.6194" stop-color="#6C9BFF"/>
<stop offset="1" stop-color="#6A99FF"/>
</linearGradient>
<linearGradient id="paint1_linear" x1="46.2274" y1="0.0845642" x2="46.2274" y2="61.2476" gradientUnits="userSpaceOnUse">
<stop offset="0.0051282" stop-color="white" stop-opacity="0"/>
<stop offset="1" stop-color="white"/>
</linearGradient>
</defs>
</svg>
