<svg width="77" height="76" viewBox="0 0 77 76" fill="none" xmlns="http://www.w3.org/2000/svg">
<path d="M38.5933 75.2292C59.3657 75.2292 76.205 58.3899 76.205 37.6175C76.205 16.8451 59.3657 0.00570679 38.5933 0.00570679C17.8209 0.00570679 0.981506 16.8451 0.981506 37.6175C0.981506 58.3899 17.8209 75.2292 38.5933 75.2292Z" fill="url(#paint0_linear)"/>
<path d="M33.3911 46.8985L29.4541 45.2816V38.9543C29.4541 37.6889 28.3996 36.6343 27.1341 36.6343C26.8529 36.6343 26.5718 36.7046 26.2905 36.7749V35.0174C26.2905 33.7519 25.236 32.6974 23.9705 32.6974C23.6893 32.6974 23.4081 32.7677 23.1269 32.838V31.8538C23.1269 30.5883 22.0724 29.5338 20.8069 29.5338C19.5415 29.5338 18.487 30.5883 18.487 31.8538V32.838C18.2761 32.7677 17.9949 32.6974 17.784 32.6974C17.1513 32.6974 16.5185 32.9083 16.0967 33.3302C15.6046 33.752 15.3937 34.3847 15.3937 35.0174V43.5943C15.3937 43.7349 15.4639 43.8755 15.5342 44.0161L20.3148 51.1166C20.3851 51.2573 20.5258 51.3275 20.5961 51.3978L27.2748 54.3505V61.8026C27.2748 62.2244 27.6263 62.5759 28.0481 62.5759C28.4699 62.5759 28.8214 62.2244 28.8214 61.8026V53.8584C28.8214 53.5772 28.6808 53.296 28.3996 53.1554L21.4397 50.0621L16.9403 43.3131V34.8065C16.9403 34.3144 17.3621 33.9629 17.8543 33.9629C18.2761 33.9629 18.6276 34.3847 18.6276 34.8768V39.7277C18.2761 40.1495 18.0652 40.6416 18.0652 41.204C18.0652 41.8367 18.2761 42.3992 18.7682 42.821L22.9864 47.1094C23.2676 47.3906 23.83 47.3906 24.1112 47.0391C24.3221 46.7579 24.3221 46.3361 24.0409 46.0549L19.8228 41.7664C19.4712 41.4149 19.4712 40.9228 19.8228 40.5713C20.1743 40.2198 20.6664 40.2198 21.0179 40.5713L25.0954 44.7191C25.1657 44.8597 25.3063 44.93 25.4469 45.0003L33.0396 48.1639C33.9535 48.5155 34.5159 49.4294 34.5159 50.4136V61.8026C34.5159 62.2244 34.8675 62.5759 35.2893 62.5759C35.7111 62.5759 36.0626 62.2244 36.0626 61.8026V50.4136C35.7814 48.867 34.8674 47.4609 33.3911 46.8985ZM21.6506 39.3761C21.2288 39.0949 20.7367 38.884 20.2446 38.884C20.1743 38.884 20.0336 38.884 19.9633 38.884V31.7132C19.9633 31.2211 20.3148 30.8696 20.8069 30.8696C21.299 30.8696 21.6506 31.2211 21.6506 31.7132V39.3761ZM24.8142 42.5398L23.1269 40.8525V40.7822V34.8768C23.1269 34.3847 23.4784 34.0332 23.9705 34.0332C24.4626 34.0332 24.8142 34.3847 24.8142 34.8768V42.5398ZM27.9778 44.5785L26.2905 43.8755V38.8137C26.2905 38.3216 26.642 37.9701 27.1341 37.9701C27.6263 37.9701 27.9778 38.3216 27.9778 38.8137V44.5785Z" fill="#2864AD"/>
<path d="M60.4575 33.1895C59.9654 32.7677 59.4029 32.4865 58.7702 32.5568C58.489 32.5568 58.2781 32.6271 58.0672 32.6974V31.7131C58.0672 30.4477 57.0127 29.3932 55.7473 29.3932C54.4818 29.3932 53.4273 30.4477 53.4273 31.7131V32.6974C53.146 32.6271 52.8649 32.5568 52.5837 32.5568C51.3182 32.5568 50.2636 33.6113 50.2636 34.8767V36.6343C49.9824 36.564 49.7013 36.4937 49.4201 36.4937C48.1546 36.4937 47.1 37.5482 47.1 38.8137V45.1409L43.1631 46.7579C41.6868 47.3906 40.7728 48.7966 40.7728 50.3433V61.7322C40.7728 62.1541 41.1243 62.5056 41.5461 62.5056C41.968 62.5056 42.3195 62.1541 42.3195 61.7322V50.3433C42.3195 49.359 42.8819 48.5154 43.7959 48.0936L51.3885 44.93C51.5291 44.8597 51.6697 44.7894 51.74 44.6488L55.8175 40.5009C56.1691 40.1494 56.6611 40.1494 57.0127 40.5009C57.3642 40.8524 57.3642 41.3446 57.0127 41.6961L52.7945 45.9845C52.5133 46.2658 52.5133 46.6875 52.7242 46.9687C53.0054 47.3203 53.4975 47.3203 53.849 47.0391L58.0672 42.7506C58.489 42.3288 58.7702 41.6961 58.7702 41.1337C58.7702 40.5712 58.5594 40.0791 58.2078 39.6573V34.8064C58.2078 34.3143 58.5593 33.9628 58.9812 33.8925C59.4733 33.8925 59.8951 34.244 59.8951 34.7362V43.2427L55.3958 49.9917L48.4358 53.0851C48.1546 53.2257 48.014 53.4366 48.014 53.7881V61.7322C48.014 62.1541 48.3655 62.5056 48.7873 62.5056C49.2091 62.5056 49.5606 62.1541 49.5606 61.7322V54.2802L56.2393 51.3275C56.38 51.2572 56.4503 51.1869 56.5909 51.0463L61.3715 43.9458C61.4418 43.8052 61.512 43.6646 61.512 43.524V34.7362C61.1605 34.244 60.8793 33.6113 60.4575 33.1895ZM50.1934 43.8755L48.5061 44.5785V38.8137C48.5061 38.3216 48.8576 37.9701 49.3498 37.9701C49.8419 37.9701 50.1934 38.3216 50.1934 38.8137V43.8755ZM51.6697 42.5397V34.8767C51.6697 34.3846 52.0213 34.0331 52.5134 34.0331C53.0055 34.0331 53.357 34.3846 53.357 34.8767V40.7821V40.8524L51.6697 42.5397ZM56.5206 38.9543C56.4503 38.9543 56.3096 38.9543 56.2393 38.9543C55.7472 38.9543 55.2551 39.0949 54.8333 39.4464V31.7835C54.8333 31.2913 55.1849 30.9398 55.677 30.9398C56.1691 30.9398 56.5206 31.2913 56.5206 31.7835V38.9543Z" fill="#2864AD"/>
<path d="M53.7085 18.7072C53.2164 16.3169 51.951 14.3485 50.1934 13.1534C48.5061 12.0285 46.5377 11.677 44.4286 12.1691C42.3196 12.6612 40.2105 13.997 38.1717 16.1061C36.1329 13.997 34.0239 12.6612 31.9148 12.1691C29.8057 11.677 27.8373 12.0285 26.15 13.1534C24.3925 14.3485 23.127 16.3169 22.6349 18.7072C22.1428 21.1678 22.4239 23.769 23.6191 26.0187C25.8687 30.5883 29.6651 33.6113 32.4069 35.3689C35.3596 37.267 37.8202 38.1107 37.8905 38.1107C38.0311 38.181 38.242 38.181 38.3826 38.1107C38.4529 38.1107 40.9135 37.267 43.8662 35.3689C46.608 33.6113 50.4043 30.5883 52.654 26.0187C53.9194 23.769 54.2006 21.1678 53.7085 18.7072ZM51.3885 25.3859C49.2794 29.6041 45.7643 32.4865 43.1632 34.1737C40.8432 35.6501 38.8747 36.4234 38.1717 36.7046C36.6954 36.1422 28.6809 32.838 24.9548 25.3859C23.9706 23.4175 23.6894 21.0975 24.1112 19.0587C24.5331 17.0903 25.5876 15.403 27.0639 14.4188C27.9778 13.7861 29.0324 13.4345 30.1572 13.4345C30.6493 13.4345 31.1414 13.5048 31.6336 13.5751C33.602 14.0673 35.6408 15.403 37.6795 17.6527C37.9607 18.0042 38.5232 18.0042 38.8044 17.6527C40.7729 15.403 42.8117 14.0673 44.8504 13.5751C46.5377 13.1533 48.0843 13.4346 49.4201 14.3485C50.8261 15.3327 51.9509 17.02 52.3728 18.9884C52.7243 21.1678 52.443 23.4175 51.3885 25.3859Z" fill="#2864AD"/>
<path opacity="0.15" d="M75.9238 37.6174C75.9238 58.3566 59.5433 75.2292 39.3665 75.2292C38.0308 75.2292 36.6248 75.1589 35.2891 75.0183C53.5677 72.9795 67.7687 57.0209 67.7687 37.6174C67.7687 18.214 53.5677 2.32565 35.2891 0.216575C36.6248 0.07597 37.9605 0.00567627 39.3665 0.00567627C59.5433 0.00567627 75.9238 16.8782 75.9238 37.6174Z" fill="url(#paint1_linear)"/>
<defs>
<linearGradient id="paint0_linear" x1="0.981506" y1="37.6175" x2="76.205" y2="37.6175" gradientUnits="userSpaceOnUse">
<stop offset="0.2923" stop-color="#7FAEFF"/>
<stop offset="0.4243" stop-color="#74A3FF"/>
<stop offset="0.6194" stop-color="#6C9BFF"/>
<stop offset="1" stop-color="#6A99FF"/>
</linearGradient>
<linearGradient id="paint1_linear" x1="55.6003" y1="0.00567627" x2="55.6003" y2="75.2292" gradientUnits="userSpaceOnUse">
<stop offset="0.0051282" stop-color="white" stop-opacity="0"/>
<stop offset="1" stop-color="white"/>
</linearGradient>
</defs>
</svg>
