<svg width="82" height="82" viewBox="0 0 82 82" fill="none" xmlns="http://www.w3.org/2000/svg">
<path d="M41.3796 81.8308C63.7051 81.8308 81.8035 63.7324 81.8035 41.4069C81.8035 19.0815 63.7051 0.983093 41.3796 0.983093C19.0542 0.983093 0.95578 19.0815 0.95578 41.4069C0.95578 63.7324 19.0542 81.8308 41.3796 81.8308Z" fill="url(#paint0_linear)"/>
<path d="M48.3397 53.2881C46.2306 53.2881 44.5434 54.9754 44.5434 57.0844C44.5434 59.1935 46.2306 60.8808 48.3397 60.8808C50.4488 60.8808 52.136 59.1935 52.136 57.0844C52.0657 54.9754 50.3785 53.2881 48.3397 53.2881ZM48.3397 59.1935C47.2149 59.1935 46.2306 58.2796 46.2306 57.0844C46.2306 55.9596 47.1446 54.9754 48.3397 54.9754C49.4646 54.9754 50.4488 55.8893 50.4488 57.0844C50.4488 58.2093 49.4646 59.1935 48.3397 59.1935Z" fill="#2864AD"/>
<path d="M56.7057 59.1935C54.5966 59.1935 52.9094 60.8808 52.9094 62.9899C52.9094 65.0989 54.5966 66.7862 56.7057 66.7862C58.8148 66.7862 60.5021 65.0989 60.5021 62.9899C60.5021 60.8808 58.8148 59.1935 56.7057 59.1935ZM56.7057 65.0286C55.5809 65.0286 54.5966 64.1147 54.5966 62.9195C54.5966 61.7947 55.5106 60.8105 56.7057 60.8105C57.8306 60.8105 58.8148 61.7244 58.8148 62.9195C58.8148 64.1147 57.8306 65.0286 56.7057 65.0286Z" fill="#2864AD"/>
<path d="M16.7739 33.1816C18.1097 33.3925 19.2345 34.4471 19.4454 35.8531C19.5157 36.2749 19.8673 36.5562 20.2891 36.5562C20.7109 36.5562 21.0624 36.2749 21.1327 35.8531C21.3436 34.5174 22.3981 33.3925 23.8042 33.1816C24.226 33.1113 24.5072 32.7598 24.5072 32.338C24.5072 31.9162 24.226 31.5647 23.8042 31.4944C22.4684 31.2835 21.3436 30.2289 21.1327 28.8229C21.0624 28.4011 20.7109 28.1199 20.2891 28.1199C19.8673 28.1199 19.5157 28.4011 19.4454 28.8229C19.2345 30.1586 18.18 31.2835 16.7739 31.4944C16.3521 31.5647 16.0709 31.9162 16.0709 32.338C16.0709 32.7598 16.3521 33.1113 16.7739 33.1816ZM20.2891 31.1429C20.6406 31.635 20.9921 31.9865 21.4842 32.338C20.9921 32.6895 20.6406 33.041 20.2891 33.5331C19.9376 33.041 19.586 32.6895 19.0939 32.338C19.5157 32.0568 19.9376 31.635 20.2891 31.1429Z" fill="#2864AD"/>
<path d="M65.845 26.5732L44.8949 16.52C44.684 16.3794 44.4028 16.3794 44.1919 16.52L23.2417 26.6435C22.9605 26.7841 22.7496 27.0653 22.7496 27.3465C22.7496 27.6278 22.8902 27.9793 23.1715 28.1199L44.1215 39.7901C44.4028 39.9307 44.684 39.9307 44.9652 39.7901L55.4402 33.8847V44.9221C52.2766 45.133 49.3239 46.3282 46.9336 48.4373L44.5434 50.476L44.1215 50.1245L42.9967 51.39L43.981 52.2336C44.2622 52.5148 44.7543 52.5148 45.1058 52.2336L48.0585 49.7027C50.3785 47.7342 53.2609 46.6094 56.2839 46.6094C56.776 46.6094 57.1275 46.2579 57.1275 45.7658V32.9707L61.3456 30.6508V37.3998C60.9238 37.3998 60.6426 37.681 60.502 38.0325L58.8147 45.5549C58.7444 45.8361 58.8147 46.047 58.9554 46.2579C59.096 46.4688 59.3772 46.5391 59.5881 46.5391H64.5795C64.8608 46.5391 65.0717 46.3985 65.2123 46.2579C65.3529 46.047 65.4232 45.7658 65.3529 45.5549L63.6656 38.0325C63.5953 37.681 63.2438 37.3998 62.822 37.3998V29.7368L65.7747 28.1199C66.0559 27.9793 66.1965 27.6981 66.1965 27.3465C66.3371 26.995 66.1262 26.7138 65.845 26.5732ZM63.5953 44.9221H60.7129L62.0487 39.0871H62.4002L63.5953 44.9221ZM62.2596 28.1902L46.9336 26.5732C46.5821 25.4484 45.387 24.6751 44.1919 24.886C42.9967 25.0266 42.0828 26.0811 42.0828 27.2762C42.0828 28.4714 42.9264 29.5259 44.1215 29.8071C45.3167 30.018 46.5118 29.3853 46.9336 28.2605L59.799 29.5962L44.5434 38.1028L25.4211 27.4169L44.5434 18.2072L63.6656 27.4169L62.2596 28.1902ZM45.387 27.3465C45.387 27.8387 45.0355 28.1902 44.5434 28.1902C44.0513 28.1902 43.6997 27.8387 43.6997 27.3465C43.6997 26.8544 44.0513 26.5029 44.5434 26.5029C45.0355 26.5029 45.387 26.8544 45.387 27.3465Z" fill="#2864AD"/>
<path d="M57.5494 49.9839C55.4403 49.9839 53.7531 51.6712 53.7531 53.7802C53.7531 55.8893 55.4403 57.5766 57.5494 57.5766C59.6585 57.5766 61.3457 55.8893 61.3457 53.7802C61.2754 51.6712 59.5882 49.9839 57.5494 49.9839ZM57.5494 55.819C56.4246 55.819 55.4403 54.9051 55.4403 53.7099C55.4403 52.5851 56.3543 51.6009 57.5494 51.6009C58.6742 51.6009 59.6585 52.5148 59.6585 53.7099C59.6585 54.9051 58.6742 55.819 57.5494 55.819Z" fill="#2864AD"/>
<path d="M42.0125 60.5293V53.3584C42.0125 48.5778 39.0598 44.2191 34.6308 42.4615L36.8805 38.1028C37.0914 37.7513 36.9508 37.2592 36.5993 37.0482L35.7556 36.4858C34.4902 35.6422 32.8732 35.5719 31.4672 36.2046C30.6939 36.5561 29.8502 36.5561 29.0769 36.2046C27.6709 35.5719 26.0539 35.6422 24.7885 36.4858L23.9448 37.0482C23.5933 37.2592 23.4527 37.7513 23.6636 38.1028L25.9133 42.4615C21.4843 44.2191 18.5316 48.5778 18.5316 53.3584V60.5293L16.774 62.2868C16.0007 63.0601 15.7898 64.185 16.2116 65.1692C16.6334 66.1534 17.5473 66.7862 18.6019 66.7862H41.8719C42.9265 66.7862 43.9107 66.1534 44.2622 65.1692C44.684 64.185 44.4731 63.0601 43.6998 62.2868L42.0125 60.5293ZM25.5618 37.9622L25.7727 37.8216C26.546 37.3295 27.6006 37.2592 28.4442 37.681C29.6393 38.2434 31.0454 38.2434 32.2405 37.681C33.0841 37.2592 34.0684 37.3295 34.912 37.8216L35.1229 37.9622L33.0841 41.8991C31.3266 41.4773 29.4284 41.4773 27.6709 41.8991L25.5618 37.9622ZM41.9422 65.0286H18.6722C18.3206 65.0286 17.9691 64.8177 17.8285 64.4662C17.6879 64.1147 17.7582 63.6928 18.0394 63.4116L20.0079 61.4432C20.1485 61.3026 20.2188 61.0917 20.2188 60.8808V53.3584C20.2188 47.8045 24.7182 43.3052 30.272 43.3052C35.8259 43.3052 40.3253 47.8045 40.3253 53.3584V60.8808C40.3253 61.0917 40.3956 61.3026 40.6065 61.4432L42.575 63.4116C42.8562 63.6928 42.9265 64.1147 42.7859 64.4662C42.6453 64.8177 42.2937 65.0286 41.9422 65.0286Z" fill="#2864AD"/>
<path d="M31.1859 53.2881H29.4987C29.0066 53.2881 28.6551 52.9366 28.6551 52.4445C28.6551 51.9524 29.0066 51.6009 29.4987 51.6009H32.8732V49.9136H31.1859V48.2263H29.4987V49.9136C28.0926 49.9136 26.9678 51.0384 26.9678 52.4445C26.9678 53.8505 28.0926 54.9754 29.4987 54.9754H31.1859C31.6781 54.9754 32.0296 55.3269 32.0296 55.819C32.0296 56.3111 31.6781 56.6626 31.1859 56.6626H27.8114V58.3499H29.4987V60.0371H31.1859V58.3499C32.592 58.3499 33.7168 57.225 33.7168 55.819C33.6465 54.4129 32.5217 53.2881 31.1859 53.2881Z" fill="#2864AD"/>
<path opacity="0.15" d="M81.452 41.4069C81.452 63.7631 63.8764 81.8308 42.153 81.8308C40.6767 81.8308 39.2003 81.7605 37.7943 81.6199C57.4086 79.3702 72.7345 62.2867 72.7345 41.4069C72.7345 20.5271 57.4789 3.44364 37.7943 1.19396C39.2003 1.05336 40.6767 0.983063 42.153 0.983063C63.8764 0.983063 81.452 19.0508 81.452 41.4069Z" fill="url(#paint1_linear)"/>
<defs>
<linearGradient id="paint0_linear" x1="0.95578" y1="41.4069" x2="81.8035" y2="41.4069" gradientUnits="userSpaceOnUse">
<stop offset="0.2923" stop-color="#7FAEFF"/>
<stop offset="0.4243" stop-color="#74A3FF"/>
<stop offset="0.6194" stop-color="#6C9BFF"/>
<stop offset="1" stop-color="#6A99FF"/>
</linearGradient>
<linearGradient id="paint1_linear" x1="59.6583" y1="0.983063" x2="59.6583" y2="81.8308" gradientUnits="userSpaceOnUse">
<stop offset="0.0051282" stop-color="white" stop-opacity="0"/>
<stop offset="1" stop-color="white"/>
</linearGradient>
</defs>
</svg>
