<svg width="82" height="83" viewBox="0 0 82 83" fill="none" xmlns="http://www.w3.org/2000/svg">
<path d="M40.9324 82.1742C63.2579 82.1742 81.3563 64.0758 81.3563 41.7503C81.3563 19.4248 63.2579 1.32645 40.9324 1.32645C18.6069 1.32645 0.508545 19.4248 0.508545 41.7503C0.508545 64.0758 18.6069 82.1742 40.9324 82.1742Z" fill="url(#paint0_linear)"/>
<path d="M31.0902 31.1357H26.5908C26.0987 31.1357 25.6769 31.5575 25.6769 32.0496V37.2519C25.6769 37.7441 26.0987 38.1659 26.5908 38.1659H31.0902C31.5823 38.1659 32.0041 37.7441 32.0041 37.2519V32.0496C32.0744 31.4872 31.6526 31.1357 31.0902 31.1357ZM30.1763 36.338H27.5751V32.9635H30.1763V36.338Z" fill="#2864AD"/>
<path d="M31.0902 41.5404H26.5908C26.0987 41.5404 25.6769 41.9622 25.6769 42.4543V47.6567C25.6769 48.1488 26.0987 48.5706 26.5908 48.5706H31.0902C31.5823 48.5706 32.0041 48.1488 32.0041 47.6567V42.4543C32.0744 41.9622 31.6526 41.5404 31.0902 41.5404ZM30.1763 46.8131H27.5751V43.4386H30.1763V46.8131Z" fill="#2864AD"/>
<path d="M31.0902 52.0154H26.5908C26.0987 52.0154 25.6769 52.4373 25.6769 52.9294V58.1318C25.6769 58.6239 26.0987 59.0457 26.5908 59.0457H31.0902C31.5823 59.0457 32.0041 58.6239 32.0041 58.1318V52.9294C32.0744 52.4373 31.6526 52.0154 31.0902 52.0154ZM30.1763 57.2178H27.5751V53.8433H30.1763V57.2178Z" fill="#2864AD"/>
<path d="M55.4852 52.0154H50.9858C50.4937 52.0154 50.0719 52.4373 50.0719 52.9294V58.1318C50.0719 58.6239 50.4937 59.0457 50.9858 59.0457H55.4852C55.9773 59.0457 56.3991 58.6239 56.3991 58.1318V52.9294C56.3991 52.4373 55.9773 52.0154 55.4852 52.0154ZM54.5712 57.2178H51.97V53.8433H54.5712V57.2178Z" fill="#2864AD"/>
<path d="M39.2453 31.1357H34.746C34.2538 31.1357 33.832 31.5575 33.832 32.0496V37.2519C33.832 37.7441 34.2538 38.1659 34.746 38.1659H39.2453C39.7374 38.1659 40.1592 37.7441 40.1592 37.2519V32.0496C40.1592 31.4872 39.7374 31.1357 39.2453 31.1357ZM38.2611 36.338H35.6599V32.9635H38.2611V36.338Z" fill="#2864AD"/>
<path d="M47.3301 31.1357H42.8307C42.3386 31.1357 41.9168 31.5575 41.9168 32.0496V37.2519C41.9168 37.7441 42.3386 38.1659 42.8307 38.1659H47.3301C47.8222 38.1659 48.244 37.7441 48.244 37.2519V32.0496C48.3143 31.4872 47.8925 31.1357 47.3301 31.1357ZM46.4161 36.338H43.8149V32.9635H46.4161V36.338Z" fill="#2864AD"/>
<path d="M39.2453 41.5404H34.746C34.2538 41.5404 33.832 41.9622 33.832 42.4543V47.6567C33.832 48.1488 34.2538 48.5706 34.746 48.5706H39.2453C39.7374 48.5706 40.1592 48.1488 40.1592 47.6567V42.4543C40.1592 41.9622 39.7374 41.5404 39.2453 41.5404ZM38.2611 46.8131H35.6599V43.4386H38.2611V46.8131Z" fill="#2864AD"/>
<path d="M47.3301 41.5404H42.8307C42.3386 41.5404 41.9168 41.9622 41.9168 42.4543V47.6567C41.9168 48.1488 42.3386 48.5706 42.8307 48.5706H47.3301C47.8222 48.5706 48.244 48.1488 48.244 47.6567V42.4543C48.3143 41.9622 47.8925 41.5404 47.3301 41.5404ZM46.4161 46.8131H43.8149V43.4386H46.4161V46.8131Z" fill="#2864AD"/>
<path d="M55.4852 31.1357H50.9858C50.4937 31.1357 50.0719 31.5575 50.0719 32.0496V37.2519C50.0719 37.7441 50.4937 38.1659 50.9858 38.1659H55.4852C55.9773 38.1659 56.3991 37.7441 56.3991 37.2519V32.0496C56.3991 31.4872 55.9773 31.1357 55.4852 31.1357ZM54.5712 36.338H51.97V32.9635H54.5712V36.338Z" fill="#2864AD"/>
<path d="M55.4852 41.5404H50.9858C50.4937 41.5404 50.0719 41.9622 50.0719 42.4543V47.6567C50.0719 48.1488 50.4937 48.5706 50.9858 48.5706H55.4852C55.9773 48.5706 56.3991 48.1488 56.3991 47.6567V42.4543C56.3991 41.9622 55.9773 41.5404 55.4852 41.5404ZM54.5712 46.8131H51.97V43.4386H54.5712V46.8131Z" fill="#2864AD"/>
<path d="M63.5699 63.4044H60.0548V27.1987C60.0548 26.7066 59.633 26.2848 59.1409 26.2848H53.9385V22.9103C53.9385 22.4182 53.5167 21.9964 53.0246 21.9964H47.8925V18.4813C47.8925 17.9891 47.4707 17.5673 46.9785 17.5673H34.2538C33.7617 17.5673 33.3399 17.9891 33.3399 18.4813V21.9964H28.2079C27.7157 21.9964 27.2939 22.4182 27.2939 22.9103V26.2848H22.0915C21.5994 26.2848 21.1776 26.7066 21.1776 27.1987V63.4044H17.6625C17.1704 63.4044 16.7485 63.8262 16.7485 64.3184C16.7485 64.8105 17.1704 65.2323 17.6625 65.2323H63.5699C64.062 65.2323 64.4839 64.8105 64.4839 64.3184C64.4839 63.8262 64.062 63.4044 63.5699 63.4044ZM35.1678 19.3952H45.9943V21.9964H35.1678V19.3952ZM44.518 63.4044H38.0502L44.518 56.9366V63.4044ZM44.518 54.3355C44.4477 54.3355 44.4477 54.4058 44.518 54.3355L36.6441 62.139V58.2021L42.6198 52.2264H44.4477V54.3355H44.518ZM36.6441 55.6009V52.2264H40.0186L36.6441 55.6009ZM58.1566 63.4044H51.8997H46.3459V52.2264H46.6974C47.1895 52.2264 47.6113 51.8045 47.6113 51.3124C47.6113 50.8203 47.1895 50.3985 46.6974 50.3985H34.4647C33.9726 50.3985 33.5508 50.8203 33.5508 51.3124C33.5508 51.8045 33.9726 52.2264 34.4647 52.2264H34.8162V63.4044H23.0055V28.1126H33.3399C33.832 28.1126 34.2538 27.6908 34.2538 27.1987C34.2538 26.7066 33.832 26.2848 33.3399 26.2848H29.1218V23.8242H52.1107V26.2848H40.792C40.2998 26.2848 39.878 26.7066 39.878 27.1987C39.878 27.6908 40.2998 28.1126 40.792 28.1126H58.2269V63.4044H58.1566Z" fill="#2864AD"/>
<path d="M37.6283 26.566C37.4877 26.4254 37.2066 26.2848 36.9956 26.2848C36.7847 26.2848 36.5035 26.3551 36.3629 26.566C36.2223 26.7066 36.0817 26.9878 36.0817 27.1987C36.0817 27.4096 36.152 27.6908 36.3629 27.8315C36.5035 27.9721 36.7847 28.1126 36.9956 28.1126C37.2066 28.1126 37.4877 28.0424 37.6283 27.8315C37.7689 27.6908 37.9096 27.4096 37.9096 27.1987C37.9096 26.9878 37.8392 26.7066 37.6283 26.566Z" fill="#2864AD"/>
<path opacity="0.15" d="M81.3562 41.7503C81.3562 64.3876 63.4994 82.8069 41.4947 82.8069C40.0184 82.8069 38.542 82.7365 37.0657 82.5256C57.0315 80.276 72.4981 62.841 72.4981 41.7503C72.4981 20.6596 56.9612 3.22458 37.0657 0.974906C38.542 0.834302 40.0184 0.69368 41.4947 0.69368C63.4994 0.69368 81.3562 19.1129 81.3562 41.7503Z" fill="url(#paint1_linear)"/>
<defs>
<linearGradient id="paint0_linear" x1="0.508545" y1="41.7503" x2="81.3563" y2="41.7503" gradientUnits="userSpaceOnUse">
<stop offset="0.2923" stop-color="#7FAEFF"/>
<stop offset="0.4243" stop-color="#74A3FF"/>
<stop offset="0.6194" stop-color="#6C9BFF"/>
<stop offset="1" stop-color="#6A99FF"/>
</linearGradient>
<linearGradient id="paint1_linear" x1="59.2109" y1="0.722644" x2="59.2109" y2="82.7779" gradientUnits="userSpaceOnUse">
<stop offset="0.0051282" stop-color="white" stop-opacity="0"/>
<stop offset="1" stop-color="white"/>
</linearGradient>
</defs>
</svg>
